0
SECTION
2
HEADER
9
$INSUNITS
70
4
0
ENDSEC
0
SECTION
2
TABLES
0
TABLE
2
LTYPE
0
LTYPE
72
65
70
64
2
CONTINUOUS
3
______
73
0
40
0
0
ENDTAB
0
TABLE
2
LAYER
0
ENDTAB
0
ENDSEC
0
SECTION
2
ENTITIES
0
LINE
8
0
10
-8
20
-9.5
11
8
21
-9.5
0
LINE
8
0
10
-10
20
-7.5
11
-10
21
58.5
0
ARC
8
0
10
-8
20
-7.5
40
2
50
180
51
270
0
LINE
8
0
10
8
20
60.5
11
-8
21
60.5
0
ARC
8
0
10
-8
20
58.5
40
2
50
90
51
180
0
LINE
8
0
10
26
20
72.4
11
10
21
72.4
0
ARC
8
0
10
10
20
70.4
40
2
50
90
51
180
0
LINE
8
0
10
8
20
70.4
11
8
21
60.5
0
LINE
8
0
10
46
20
72.4
11
46
21
73.8
0
ARC
8
0
10
44
20
73.8
40
2
50
0
51
90
0
LINE
8
0
10
44
20
75.8
11
28
21
75.8
0
ARC
8
0
10
28
20
73.8
40
2
50
90
51
180
0
LINE
8
0
10
26
20
73.8
11
26
21
72.4
0
ARC
8
0
10
62
20
70.4
40
2
50
8.6232234
51
90
0
LINE
8
0
10
62
20
72.4
11
46
21
72.4
0
LINE
8
0
10
82
20
2.7
11
82
21
68.7
0
ARC
8
0
10
80
20
68.7
40
2
50
0
51
90
0
LINE
8
0
10
80
20
70.7
11
64
21
70.7
0
ARC
8
0
10
64
20
68.7
40
2
50
90
51
90.6477025
0
ARC
8
0
10
98.6090967
20
-14.6023364
40
2
50
375.6513725
51
60
0
LINE
8
0
10
99.6090967
20
-12.8702856
11
98.5230923
21
-12.2432806
0
ARC
8
0
10
104.2030442
20
-40.2724513
40
2
50
225
51
315
0
LINE
8
0
10
105.6172578
20
-41.6866649
11
116.2238595
21
-31.0800632
0
ARC
8
0
10
114.8096459
20
-29.6658496
40
2
50
315
51
45
0
LINE
8
0
10
116.2238595
20
-28.251636
11
104.910151
21
-16.9379275
0
ARC
8
0
10
103.4959374
20
-18.3521411
40
2
50
45
51
101.1762406
0
LINE
8
0
10
82
20
2.7
11
98.5230923
21
-12.2432806
0
LINE
8
0
10
100.5349388
20
-14.0627698
11
103.1082823
21
-16.3900699
0
LINE
8
0
10
102.7888306
20
-41.6866649
11
59.2071068
21
-16.5247449
0
LINE
8
0
10
59.2071068
20
-16.5247449
11
8
21
-9.5
0
ENDSEC
0
EOF