0
SECTION
2
HEADER
9
$INSUNITS
70
4
0
ENDSEC
0
SECTION
2
TABLES
0
TABLE
2
LTYPE
0
LTYPE
72
65
70
64
2
CONTINUOUS
3
______
73
0
40
0
0
ENDTAB
0
TABLE
2
LAYER
0
ENDTAB
0
ENDSEC
0
SECTION
2
ENTITIES
0
LINE
8
0
10
-8
20
-9.5
11
8
21
-9.5
0
LINE
8
0
10
-10
20
-7.5
11
-10
21
58.5
0
ARC
8
0
10
-8
20
-7.5
40
2
50
180
51
270
0
LINE
8
0
10
8
20
60.5
11
-8
21
60.5
0
ARC
8
0
10
-8
20
58.5
40
2
50
90
51
180
0
LINE
8
0
10
26
20
72.4
11
10
21
72.4
0
ARC
8
0
10
10
20
70.4
40
2
50
90
51
180
0
LINE
8
0
10
8
20
70.4
11
8
21
60.5
0
LINE
8
0
10
46
20
72.4
11
46
21
73.8
0
ARC
8
0
10
44
20
73.8
40
2
50
0
51
90
0
LINE
8
0
10
44
20
75.8
11
28
21
75.8
0
ARC
8
0
10
28
20
73.8
40
2
50
90
51
180
0
LINE
8
0
10
26
20
73.8
11
26
21
72.4
0
ARC
8
0
10
62
20
70.4
40
2
50
8.6232234
51
90
0
LINE
8
0
10
62
20
72.4
11
46
21
72.4
0
LINE
8
0
10
82
20
2.7
11
82
21
68.7
0
ARC
8
0
10
80
20
68.7
40
2
50
0
51
90
0
LINE
8
0
10
80
20
70.7
11
64
21
70.7
0
ARC
8
0
10
64
20
68.7
40
2
50
90
51
90.6477025
0
ARC
8
0
10
98.6090967
20
-14.6023364
40
2
50
375.6513725
51
60
0
LINE
8
0
10
99.6090967
20
-12.8702856
11
98.5230923
21
-12.2432806
0
ARC
8
0
10
104.2030442
20
-40.2724513
40
2
50
225
51
315
0
LINE
8
0
10
105.6172578
20
-41.6866649
11
116.2238595
21
-31.0800632
0
ARC
8
0
10
114.8096459
20
-29.6658496
40
2
50
315
51
45
0
LINE
8
0
10
116.2238595
20
-28.251636
11
104.910151
21
-16.9379275
0
ARC
8
0
10
103.4959374
20
-18.3521411
40
2
50
45
51
101.1762406
0
LINE
8
0
10
82
20
2.7
11
98.5230923
21
-12.2432806
0
LINE
8
0
10
100.5349388
20
-14.0627698
11
103.1082823
21
-16.3900699
0
LINE
8
0
10
102.7888306
20
-41.6866649
11
59.2071068
21
-16.5247449
0
LINE
8
0
10
59.2071068
20
-16.5247449
11
8
21
-9.5
0
LINE
8
0
10
-7
20
-7
11
7
21
-7
0
LINE
8
0
10
7
20
-7
11
7
21
7
0
LINE
8
0
10
7
20
7
11
-7
21
7
0
LINE
8
0
10
-7
20
7
11
-7
21
-7
0
LINE
8
0
10
-7
20
10
11
7
21
10
0
LINE
8
0
10
7
20
10
11
7
21
24
0
LINE
8
0
10
7
20
24
11
-7
21
24
0
LINE
8
0
10
-7
20
24
11
-7
21
10
0
LINE
8
0
10
-7
20
27
11
7
21
27
0
LINE
8
0
10
7
20
27
11
7
21
41
0
LINE
8
0
10
7
20
41
11
-7
21
41
0
LINE
8
0
10
-7
20
41
11
-7
21
27
0
LINE
8
0
10
-7
20
44
11
7
21
44
0
LINE
8
0
10
7
20
44
11
7
21
58
0
LINE
8
0
10
7
20
58
11
-7
21
58
0
LINE
8
0
10
-7
20
58
11
-7
21
44
0
LINE
8
0
10
11
20
4.9
11
25
21
4.9
0
LINE
8
0
10
25
20
4.9
11
25
21
18.9
0
LINE
8
0
10
25
20
18.9
11
11
21
18.9
0
LINE
8
0
10
11
20
18.9
11
11
21
4.9
0
LINE
8
0
10
11
20
21.9
11
25
21
21.9
0
LINE
8
0
10
25
20
21.9
11
25
21
35.9
0
LINE
8
0
10
25
20
35.9
11
11
21
35.9
0
LINE
8
0
10
11
20
35.9
11
11
21
21.9
0
LINE
8
0
10
11
20
38.9
11
25
21
38.9
0
LINE
8
0
10
25
20
38.9
11
25
21
52.9
0
LINE
8
0
10
25
20
52.9
11
11
21
52.9
0
LINE
8
0
10
11
20
52.9
11
11
21
38.9
0
LINE
8
0
10
11
20
55.9
11
25
21
55.9
0
LINE
8
0
10
25
20
55.9
11
25
21
69.9
0
LINE
8
0
10
25
20
69.9
11
11
21
69.9
0
LINE
8
0
10
11
20
69.9
11
11
21
55.9
0
LINE
8
0
10
29
20
8.3
11
43
21
8.3
0
LINE
8
0
10
43
20
8.3
11
43
21
22.3
0
LINE
8
0
10
43
20
22.3
11
29
21
22.3
0
LINE
8
0
10
29
20
22.3
11
29
21
8.3
0
LINE
8
0
10
29
20
25.3
11
43
21
25.3
0
LINE
8
0
10
43
20
25.3
11
43
21
39.3
0
LINE
8
0
10
43
20
39.3
11
29
21
39.3
0
LINE
8
0
10
29
20
39.3
11
29
21
25.3
0
LINE
8
0
10
29
20
42.3
11
43
21
42.3
0
LINE
8
0
10
43
20
42.3
11
43
21
56.3
0
LINE
8
0
10
43
20
56.3
11
29
21
56.3
0
LINE
8
0
10
29
20
56.3
11
29
21
42.3
0
LINE
8
0
10
29
20
59.3
11
43
21
59.3
0
LINE
8
0
10
43
20
59.3
11
43
21
73.3
0
LINE
8
0
10
43
20
73.3
11
29
21
73.3
0
LINE
8
0
10
29
20
73.3
11
29
21
59.3
0
LINE
8
0
10
47
20
4.9
11
61
21
4.9
0
LINE
8
0
10
61
20
4.9
11
61
21
18.9
0
LINE
8
0
10
61
20
18.9
11
47
21
18.9
0
LINE
8
0
10
47
20
18.9
11
47
21
4.9
0
LINE
8
0
10
47
20
21.9
11
61
21
21.9
0
LINE
8
0
10
61
20
21.9
11
61
21
35.9
0
LINE
8
0
10
61
20
35.9
11
47
21
35.9
0
LINE
8
0
10
47
20
35.9
11
47
21
21.9
0
LINE
8
0
10
47
20
38.9
11
61
21
38.9
0
LINE
8
0
10
61
20
38.9
11
61
21
52.9
0
LINE
8
0
10
61
20
52.9
11
47
21
52.9
0
LINE
8
0
10
47
20
52.9
11
47
21
38.9
0
LINE
8
0
10
47
20
55.9
11
61
21
55.9
0
LINE
8
0
10
61
20
55.9
11
61
21
69.9
0
LINE
8
0
10
61
20
69.9
11
47
21
69.9
0
LINE
8
0
10
47
20
69.9
11
47
21
55.9
0
LINE
8
0
10
65
20
3.2
11
79
21
3.2
0
LINE
8
0
10
79
20
3.2
11
79
21
17.2
0
LINE
8
0
10
79
20
17.2
11
65
21
17.2
0
LINE
8
0
10
65
20
17.2
11
65
21
3.2
0
LINE
8
0
10
65
20
20.2
11
79
21
20.2
0
LINE
8
0
10
79
20
20.2
11
79
21
34.2
0
LINE
8
0
10
79
20
34.2
11
65
21
34.2
0
LINE
8
0
10
65
20
34.2
11
65
21
20.2
0
LINE
8
0
10
65
20
37.2
11
79
21
37.2
0
LINE
8
0
10
79
20
37.2
11
79
21
51.2
0
LINE
8
0
10
79
20
51.2
11
65
21
51.2
0
LINE
8
0
10
65
20
51.2
11
65
21
37.2
0
LINE
8
0
10
65
20
54.2
11
79
21
54.2
0
LINE
8
0
10
79
20
54.2
11
79
21
68.2
0
LINE
8
0
10
79
20
68.2
11
65
21
68.2
0
LINE
8
0
10
65
20
68.2
11
65
21
54.2
0
LINE
8
0
10
60.8200802
20
-14.3687494
11
74.3430418
21
-17.992216
0
LINE
8
0
10
74.3430418
20
-17.992216
11
77.9665084
21
-4.4692544
0
LINE
8
0
10
77.9665084
20
-4.4692544
11
64.4435468
21
-0.8457878
0
LINE
8
0
10
64.4435468
20
-0.8457878
11
60.8200802
21
-14.3687494
0
LINE
8
0
10
78.3687157
20
-19.6597047
11
90.4930713
21
-26.6597047
0
LINE
8
0
10
90.4930713
20
-26.6597047
11
97.4930713
21
-14.5353491
0
LINE
8
0
10
97.4930713
20
-14.5353491
11
85.3687157
21
-7.5353491
0
LINE
8
0
10
85.3687157
20
-7.5353491
11
78.3687157
21
-19.6597047
0
LINE
8
0
10
93.9499959
20
-29.3122962
11
103.8494908
21
-39.2117911
0
LINE
8
0
10
103.8494908
20
-39.2117911
11
113.7489857
21
-29.3122962
0
LINE
8
0
10
113.7489857
20
-29.3122962
11
103.8494908
21
-19.4128013
0
LINE
8
0
10
103.8494908
20
-19.4128013
11
93.9499959
21
-29.3122962
0
CIRCLE
8
0
10
9
20
28.9
40
1.05
0
CIRCLE
8
0
10
9
20
0
40
1.05
0
CIRCLE
8
0
10
63
20
61.2
40
1.05
0
CIRCLE
8
0
10
54
20
-6.12
40
1.05
0
CIRCLE
8
0
10
96.8491337
20
-22.3119391
40
1.05
0
ENDSEC
0
EOF