<svg width="126.81mm" height="118.072mm" viewBox="0 0 126.81 118.072" xmlns="http://www.w3.org/2000/svg"><g id="svgGroup" stroke-linecap="round" fill-rule="evenodd" font-size="9pt" stroke="#000" stroke-width="0.25mm" fill="none" style="stroke:#000;stroke-width:0.25mm;fill:none"><path d="M 2 85.3 L 18 85.3 A 2 2 0 0 0 20 83.3 L 20 73.4 L 36 73.4 A 2 2 0 0 0 38 71.4 L 38 70 L 54 70 L 54 71.4 A 2 2 0 0 0 56 73.4 L 72 73.4 A 2 2 0 0 0 72.023 73.4 A 2 2 0 0 0 72.404 74.306 A 2 2 0 0 0 71.675 75.386 L 67.793 89.875 A 2 2 0 0 0 69.207 92.325 L 84.662 96.466 A 2 2 0 0 0 85.583 96.493 A 2 2 0 0 0 86.253 97.125 L 100.109 105.125 A 2 2 0 0 0 100.991 105.389 A 2 2 0 0 0 101.475 106.173 L 112.789 117.487 A 2 2 0 0 0 115.617 117.487 L 126.224 106.88 A 2 2 0 0 0 126.224 104.052 L 114.91 92.738 A 2 2 0 0 0 112.082 92.738 L 106.139 98.681 L 110.341 91.402 A 2 2 0 0 0 109.609 88.67 L 95.753 80.67 A 2 2 0 0 0 93.021 81.402 L 88.819 88.681 L 90.994 80.563 A 2 2 0 0 0 89.579 78.113 L 78.334 75.1 L 90 75.1 A 2 2 0 0 0 92 73.1 L 92 58.1 A 2 2 0 0 0 91.732 57.1 A 2 2 0 0 0 92 56.1 L 92 41.1 A 2 2 0 0 0 91.732 40.1 A 2 2 0 0 0 92 39.1 L 92 24.1 A 2 2 0 0 0 91.732 23.1 A 2 2 0 0 0 92 22.1 L 92 7.1 A 2 2 0 0 0 90 5.1 L 74 5.1 A 2 2 0 0 0 73.977 5.1 A 2 2 0 0 0 72 3.4 L 56 3.4 L 56 2 A 2 2 0 0 0 54 0 L 38 0 A 2 2 0 0 0 36 2 L 36 3.4 L 20 3.4 A 2 2 0 0 0 18 5.4 L 18 15.3 L 2 15.3 A 2 2 0 0 0 0 17.3 L 0 32.3 A 2 2 0 0 0 0.268 33.3 A 2 2 0 0 0 0 34.3 L 0 49.3 A 2 2 0 0 0 0.268 50.3 A 2 2 0 0 0 0 51.3 L 0 66.3 A 2 2 0 0 0 0.268 67.3 A 2 2 0 0 0 0 68.3 L 0 83.3 A 2 2 0 0 0 2 85.3 Z" vector-effect="non-scaling-stroke"/></g></svg>