<svg width="89.949mm" height="85.612mm" viewBox="0 0 89.949 85.612" xmlns="http://www.w3.org/2000/svg"><g id="svgGroup" stroke-linecap="round" fill-rule="evenodd" font-size="9pt" stroke="#000" stroke-width="0.25mm" fill="none" style="stroke:#000;stroke-width:0.25mm;fill:none"><path d="M 1.05 33.35 m -1.05 0 a 1.05 1.05 0 0 1 2.1 0 a 1.05 1.05 0 0 1 -2.1 0 z M 1.05 62.25 m -1.05 0 a 1.05 1.05 0 0 1 2.1 0 a 1.05 1.05 0 0 1 -2.1 0 z M 55.05 1.05 m -1.05 0 a 1.05 1.05 0 0 1 2.1 0 a 1.05 1.05 0 0 1 -2.1 0 z M 46.05 68.37 m -1.05 0 a 1.05 1.05 0 0 1 2.1 0 a 1.05 1.05 0 0 1 -2.1 0 z M 88.899 84.562 m -1.05 0 a 1.05 1.05 0 0 1 2.1 0 a 1.05 1.05 0 0 1 -2.1 0 z" vector-effect="non-scaling-stroke"/></g></svg>