<svg width="126.81mm" height="118.072mm" viewBox="0 0 126.81 118.072" xmlns="http://www.w3.org/2000/svg"><g id="svgGroup" stroke-linecap="round" fill-rule="evenodd" font-size="9pt" stroke="#000" stroke-width="0.25mm" fill="none" style="stroke:#000;stroke-width:0.25mm;fill:none"><path d="M 2 85.3 L 18 85.3 L 69.207 92.325 L 112.789 117.487 A 2 2 0 0 0 115.617 117.487 L 126.224 106.88 A 2 2 0 0 0 126.224 104.052 L 114.91 92.738 A 2 2 0 0 0 114 92.217 L 114 25.95 A 2 2 0 0 0 112 23.95 L 92 23.95 L 92 7.1 A 2 2 0 0 0 90 5.1 L 74 5.1 A 2 2 0 0 0 73.977 5.1 A 2 2 0 0 0 72 3.4 L 56 3.4 L 56 2 A 2 2 0 0 0 54 0 L 38 0 A 2 2 0 0 0 36 2 L 36 3.4 L 20 3.4 A 2 2 0 0 0 18 5.4 L 18 15.3 L 2 15.3 A 2 2 0 0 0 0 17.3 L 0 83.3 A 2 2 0 0 0 2 85.3 Z M 19 46.9 m -1.05 0 a 1.05 1.05 0 0 1 2.1 0 a 1.05 1.05 0 0 1 -2.1 0 z M 19 75.8 m -1.05 0 a 1.05 1.05 0 0 1 2.1 0 a 1.05 1.05 0 0 1 -2.1 0 z M 73 14.6 m -1.05 0 a 1.05 1.05 0 0 1 2.1 0 a 1.05 1.05 0 0 1 -2.1 0 z M 64 81.92 m -1.05 0 a 1.05 1.05 0 0 1 2.1 0 a 1.05 1.05 0 0 1 -2.1 0 z M 106.849 98.112 m -1.05 0 a 1.05 1.05 0 0 1 2.1 0 a 1.05 1.05 0 0 1 -2.1 0 z" vector-effect="non-scaling-stroke"/></g></svg>