<svg width="120.749mm" height="112.512mm" viewBox="0 0 120.749 112.512" xmlns="http://www.w3.org/2000/svg"><g id="svgGroup" stroke-linecap="round" fill-rule="evenodd" font-size="9pt" stroke="#000" stroke-width="0.25mm" fill="none" style="stroke:#000;stroke-width:0.25mm;fill:none"><path d="M 67.82 87.669 L 81.343 91.292 L 84.967 77.769 L 71.444 74.146 L 67.82 87.669 Z M 18 17.4 L 32 17.4 L 32 3.4 L 18 3.4 L 18 17.4 Z M 54 17.4 L 68 17.4 L 68 3.4 L 54 3.4 L 54 17.4 Z M 0 80.3 L 14 80.3 L 14 66.3 L 0 66.3 L 0 80.3 Z M 0 63.3 L 14 63.3 L 14 49.3 L 0 49.3 L 0 63.3 Z M 0 46.3 L 14 46.3 L 14 32.3 L 0 32.3 L 0 46.3 Z M 0 29.3 L 14 29.3 L 14 15.3 L 0 15.3 L 0 29.3 Z M 18 68.4 L 32 68.4 L 32 54.4 L 18 54.4 L 18 68.4 Z M 18 51.4 L 32 51.4 L 32 37.4 L 18 37.4 L 18 51.4 Z M 18 34.4 L 32 34.4 L 32 20.4 L 18 20.4 L 18 34.4 Z M 36 65 L 50 65 L 50 51 L 36 51 L 36 65 Z M 36 48 L 50 48 L 50 34 L 36 34 L 36 48 Z M 36 31 L 50 31 L 50 17 L 36 17 L 36 31 Z M 36 14 L 50 14 L 50 0 L 36 0 L 36 14 Z M 54 68.4 L 68 68.4 L 68 54.4 L 54 54.4 L 54 68.4 Z M 54 51.4 L 68 51.4 L 68 37.4 L 54 37.4 L 54 51.4 Z M 54 34.4 L 68 34.4 L 68 20.4 L 54 20.4 L 54 34.4 Z M 72 70.1 L 86 70.1 L 86 56.1 L 72 56.1 L 72 70.1 Z M 72 53.1 L 86 53.1 L 86 39.1 L 72 39.1 L 72 53.1 Z M 72 36.1 L 86 36.1 L 86 22.1 L 72 22.1 L 72 36.1 Z M 72 19.1 L 86 19.1 L 86 5.1 L 72 5.1 L 72 19.1 Z M 85.369 92.96 L 97.493 99.96 L 104.493 87.835 L 92.369 80.835 L 85.369 92.96 Z M 100.95 102.612 L 110.849 112.512 L 120.749 102.612 L 110.849 92.713 L 100.95 102.612 Z" vector-effect="non-scaling-stroke"/></g></svg>